<svg xmlns="http://www.w3.org/2000/svg" viewBox="0 0 64 64">
  <rect width="64" height="64" rx="14" fill="#1B212C"/>
  <rect x="0.75" y="0.75" width="62.5" height="62.5" rx="13.25" fill="none" stroke="#3B4554" stroke-width="1.5"/>
  <path d="M31.99 50.00Q25.15 50.00 20.17 47.92Q15.19 45.83 12.51 41.81Q9.83 37.79 9.83 32.00Q9.83 26.16 12.51 22.16Q15.19 18.17 20.17 16.08Q25.15 14.00 31.99 14.00Q38.88 14.00 43.85 16.08Q48.81 18.17 51.49 22.16Q54.17 26.16 54.17 32.00Q54.17 37.79 51.49 41.81Q48.81 45.83 43.85 47.92Q38.88 50.00 31.99 50.00ZM32.01 44.50Q35.33 44.50 38.14 43.77Q40.94 43.04 43.04 41.58Q45.13 40.12 46.30 37.85Q47.47 35.59 47.47 32.53V31.38Q47.47 28.35 46.30 26.10Q45.13 23.85 43.04 22.39Q40.94 20.93 38.14 20.21Q35.33 19.50 32.01 19.50Q28.69 19.50 25.88 20.21Q23.07 20.93 20.97 22.39Q18.87 23.85 17.72 26.10Q16.57 28.35 16.57 31.38V32.53Q16.57 35.59 17.72 37.85Q18.87 40.12 20.97 41.58Q23.07 43.04 25.88 43.77Q28.69 44.50 32.01 44.50Z" fill="#F2F3EF"/>
</svg>